HIERARCHY
ROOT root
{
	OFFSET	0	13.1	24.9
	CHANNELS 6  Xposition Yposition Zposition Xrotation Yrotation Zrotation
	JOINT spine_1
	{
		OFFSET	0	9.99999	0
		CHANNELS 3  Xrotation Yrotation Zrotation
		JOINT spine_2
		{
			OFFSET	0	112	-10
			CHANNELS 3  Xrotation Yrotation Zrotation
			JOINT spine_3
			{
				OFFSET	0	206.5	19.3
				CHANNELS 3  Xrotation Yrotation Zrotation
				JOINT spine_4
				{
					OFFSET	0	110.4	14.6
					CHANNELS 3  Xrotation Yrotation Zrotation
					JOINT neck_1
					{
						OFFSET	0	71.8	-50.3
						CHANNELS 3  Xrotation Yrotation Zrotation
						JOINT neck_2
						{
							OFFSET	0	86.2	-25.8
							CHANNELS 3  Xrotation Yrotation Zrotation
							JOINT head_ee
							{
								OFFSET	0	179.8	-8.7
								CHANNELS 3  Xrotation Yrotation Zrotation
								End Site
								{
									OFFSET	1	0	0
								}
							}
						}
					}
					JOINT left_clavicle
					{
						OFFSET	-43.2	22.4	-70.8
						CHANNELS 3  Xrotation Yrotation Zrotation
						JOINT left_shoulder
						{
							OFFSET	-93.9	-5.79999	48.7
							CHANNELS 3  Xrotation Yrotation Zrotation
							JOINT left_elbow
							{
								OFFSET	-291.4	-30.8	15.2
								CHANNELS 3  Xrotation Yrotation Zrotation
								JOINT left_lowarm_twist
								{
									OFFSET	-110.7	-3.89999	13.6
									CHANNELS 3  Xrotation Yrotation Zrotation
									JOINT left_hand
									{
										OFFSET	-110.7	-3.89999	13.6
										CHANNELS 3  Xrotation Yrotation Zrotation
										JOINT left_ee
										{
											OFFSET	-80.8	-5.10001	12.1
											CHANNELS 3  Xrotation Yrotation Zrotation
											End Site
											{
												OFFSET	1	0	0
											}
										}
									}
								}
							}
						}
					}
					JOINT right_clavicle
					{
						OFFSET	43.2	22.4	-70.8
						CHANNELS 3  Xrotation Yrotation Zrotation
						JOINT right_shoulder
						{
							OFFSET	93.9	-5.79999	48.7
							CHANNELS 3  Xrotation Yrotation Zrotation
							JOINT right_elbow
							{
								OFFSET	291.4	-30.8	15.2
								CHANNELS 3  Xrotation Yrotation Zrotation
								JOINT right_lowarm_twist
								{
									OFFSET	110.7	-3.89999	13.6
									CHANNELS 3  Xrotation Yrotation Zrotation
									JOINT right_hand
									{
										OFFSET	110.7	-3.89999	13.6
										CHANNELS 3  Xrotation Yrotation Zrotation
										JOINT right_ee
										{
											OFFSET	80.8	-5.10001	12.1
											CHANNELS 3  Xrotation Yrotation Zrotation
											End Site
											{
												OFFSET	1	0	0
											}
										}
									}
								}
							}
						}
					}
				}
			}
		}
	}
	JOINT left_hip
	{
		OFFSET	-82.8	-127.5	0.300001
		CHANNELS 3  Xrotation Yrotation Zrotation
		JOINT left_knee
		{
			OFFSET	-28.2	-396.7	2.2
			CHANNELS 3  Xrotation Yrotation Zrotation
			JOINT left_ankle
			{
				OFFSET	-11.7	-411.3	35.4
				CHANNELS 3  Xrotation Yrotation Zrotation
				JOINT left_toes
				{
					OFFSET	0	-60	-88.6
					CHANNELS 3  Xrotation Yrotation Zrotation
					JOINT left_foot_ee
					{
						OFFSET	-22.5	-16.5	-42.2
						CHANNELS 3  Xrotation Yrotation Zrotation
						End Site
						{
							OFFSET	1	0	0
						}
					}
				}
			}
		}
	}
	JOINT right_hip
	{
		OFFSET	82.8	-127.5	0.300001
		CHANNELS 3  Xrotation Yrotation Zrotation
		JOINT right_knee
		{
			OFFSET	28.2	-396.7	2.2
			CHANNELS 3  Xrotation Yrotation Zrotation
			JOINT right_ankle
			{
				OFFSET	11.7	-411.3	35.4
				CHANNELS 3  Xrotation Yrotation Zrotation
				JOINT right_toes
				{
					OFFSET	0	-60	-88.6
					CHANNELS 3  Xrotation Yrotation Zrotation
					JOINT right_foot_ee
					{
						OFFSET	22.5	-16.5	-42.2
						CHANNELS 3  Xrotation Yrotation Zrotation
						End Site
						{
							OFFSET	1	0	0
						}
					}
				}
			}
		}
	}
}
MOTION
Frames: 15
Frame Time: 0.02
3177.02 653.055 -1669.29 45.6717392834 83.5027863658 -41.1665089787 -1.87877 0.39601 -0.683099 -1.87862 0.438674 -0.656517 -1.88374 0.584644 -0.530699 -1.88379 0.493494 -0.616371 -14.5542 0.930799 -4.18691 -14.5199 4.29798 -3.66597 -0.0 0.0 -0.0 4.22331 24.628 8.50948 -13.4111 -15.4405 64.8808 0.667101 -18.2869 0.107372 -14.7236 -0.744771 1.72385 5.16133 31.6681 44.2361 -0.0 0.0 -0.0 10.174 -0.0250016 -20.0134 19.2946 11.1215 -60.6533 3.04391 56.4363 -1.63364 14.2602 -0.280303 1.79536 2.09947 -7.37181 -16.9803 0.0 0.0 0.0 33.3874 -18.6008 -4.25269 -6.50865 0.212743 0.975696 -0.543456 27.8188 0.0844165 23.8626 -0.0 -0.0 -0.0 0.0 -0.0 -18.1521 -0.773051 -9.10904 -35.7112 0.216699 -5.38859 39.585 7.70871 4.94209 28.6192 -0.0 -0.0 0.0 0.0 0.0 
3147.30890939 653.066 -1669.19388153 40.8966243671 83.326508357 -35.9919955402 -1.82764 0.219866 -0.721101 -1.82739 0.265305 -0.70565 -1.83058 0.427761 -0.620768 -1.83097 0.324356 -0.680532 -14.0354 0.935749 -3.4632 -14.0129 3.89934 -2.99536 -0.0 0.0 -0.0 4.30998 24.6739 8.62629 -14.862 -14.6892 64.4315 0.744944 -20.2552 0.133067 -14.1392 -0.706887 1.65937 5.12871 31.0754 43.9972 -0.0 0.0 -0.0 9.40475 -0.10775 -18.4274 18.1247 13.3448 -61.8502 2.90602 55.2031 -1.51956 14.3533 -0.280655 1.80725 2.28438 -8.03836 -18.4851 0.0 0.0 0.0 33.1478 -18.3167 -4.48857 -8.52983 0.256097 1.28281 0.113389 28.1655 -0.0176264 25.4065 -0.0 -0.0 -0.0 0.0 -0.0 -20.891 -0.300906 -8.94079 -32.364 0.0537187 -4.90102 38.1398 9.3715 4.84768 28.7935 -0.0 -0.0 0.0 0.0 0.0 
3119.42794641 658.996 -1668.76194748 32.1731095496 83.0687773456 -26.615582519 -1.67258 0.0927684 -0.711662 -1.67231 0.137864 -0.704317 -1.67384 0.301978 -0.651062 -1.67438 0.195368 -0.69058 -13.415 1.48342 -3.6873 -13.3941 5.11392 -3.06398 -0.0 0.0 -0.0 5.18963 24.7899 9.81948 -15.0271 -14.138 63.2474 0.757929 -20.5789 0.137597 -13.0322 -0.636939 1.53617 4.89891 30.813 42.1931 -0.0 0.0 -0.0 9.10197 -1.43689 -17.7585 14.8644 13.6322 -62.3708 3.00098 56.0608 -1.59795 14.7104 -0.281826 1.85284 2.73077 -8.09977 -21.605 0.0 0.0 0.0 32.2429 -17.9089 -5.24578 -8.50638 0.255656 1.27924 -0.588372 28.2403 0.0916416 24.6238 -0.0 -0.0 -0.0 0.0 -0.0 -22.5171 -0.907629 -8.84602 -28.3374 -0.104147 -4.30337 38.2079 9.01513 4.84619 28.7741 -0.0 -0.0 0.0 0.0 0.0 
3092.11125259 663.631 -1668.573803 27.2714325663 83.239666073 -21.5621260917 -1.56777 -0.000613363 -0.568536 -1.5676 0.0355647 -0.567423 -1.56781 0.168951 -0.542854 -1.56822 0.0810981 -0.562723 -13.1874 1.73684 -3.66359 -13.1696 5.59324 -2.97552 -0.0 0.0 -0.0 5.64395 24.8638 10.4363 -15.0064 -13.7879 62.259 0.796596 -21.5346 0.15149 -12.1644 -0.583778 1.43867 4.82345 30.6843 41.6125 -0.0 0.0 -0.0 8.64075 -2.38817 -16.7982 12.3421 14.8515 -63.2333 3.06539 56.6215 -1.65156 14.9558 -0.282466 1.88418 2.99106 -8.20934 -23.4829 0.0 0.0 0.0 31.6453 -17.6009 -5.6421 -9.89115 0.279179 1.49042 -1.24621 28.1425 0.194246 24.1116 -0.0 -0.0 -0.0 0.0 -0.0 -23.7538 -1.58861 -8.63592 -25.5089 -0.189724 -3.87775 38.0009 8.37909 4.81424 28.8208 -0.0 -0.0 0.0 0.0 0.0 
3062.15868328 670.108 -1669.40805431 27.5745173596 82.393728132 -21.5614961229 -1.55686 0.212705 -0.618857 -1.55668 0.251652 -0.604069 -1.5593 0.3875 -0.527327 -1.55956 0.299357 -0.581906 -14.0858 3.2578 -2.01934 -14.1164 7.44581 -0.887068 -0.0 0.0 -0.0 6.16673 25.0713 11.1378 -13.5836 -10.9177 61.5781 0.866097 -23.221 0.177953 -10.8346 -0.505216 1.28776 4.57904 31.167 39.7842 -0.0 0.0 -0.0 8.14015 -3.32109 -15.7784 8.98358 15.8562 -63.511 3.03119 56.3259 -1.62306 15.0725 -0.282723 1.89908 2.96596 -8.798 -23.5055 0.0 0.0 0.0 32.9648 -18.3054 -6.21387 -22.5302 0.257011 3.42565 8.02969 22.8796 -1.18866 25.2266 -0.0 -0.0 -0.0 0.0 -0.0 -26.0405 -3.04327 -7.47282 -23.8436 -0.230242 -3.62541 34.7568 8.48414 4.50935 30.8288 -0.0 -0.0 0.0 0.0 0.0 
3000.85140474 681.944 -1668.26167844 37.2948179767 82.369428462 -31.0054800866 -1.56189 0.135333 -0.70862 -1.56163 0.180149 -0.698573 -1.56371 0.34045 -0.636046 -1.5642 0.235728 -0.681829 -12.5795 3.78903 -1.97798 -12.6101 8.45157 -0.790916 -0.0 0.0 -0.0 8.90252 24.7226 15.0096 -16.0434 -12.0657 56.1684 0.952785 -25.266 0.213554 -10.7625 -0.501054 1.27952 4.1532 31.0351 36.7341 -0.0 0.0 -0.0 7.5628 -5.17214 -14.6022 5.30616 16.1181 -64.3067 2.55729 51.7045 -1.23928 12.6216 -0.270947 1.58629 3.05226 -10.5777 -24.7103 0.0 0.0 0.0 31.4931 -17.9898 -5.16246 -33.8624 -0.123145 5.12043 16.5465 19.6051 -2.34656 22.8119 -0.0 -0.0 -0.0 0.0 -0.0 -27.855 -3.16441 -5.83937 -25.1 -0.200353 -3.8159 36.1027 5.23396 4.58299 32.0313 -0.0 -0.0 0.0 0.0 0.0 
2973.47882239 689.117 -1671.19294823 40.9487763249 82.072946254 -34.1491301504 -1.75839 -0.0660295 -0.824479 -1.75802 -0.0134338 -0.82701 -1.75748 0.185504 -0.80605 -1.75838 0.0558799 -0.825229 -13.0853 5.08088 -0.47316 -13.1492 9.96297 1.07422 -0.0 0.0 -0.0 9.91292 24.9099 16.4352 -14.9857 -12.4476 54.9011 1.00507 -26.4674 0.236368 -9.53174 -0.431668 1.1382 4.24387 31.0755 37.3712 -0.0 0.0 -0.0 7.29279 -6.29227 -14.0556 4.1473 16.3415 -64.4261 2.41614 50.1136 -1.12971 11.5436 -0.261532 1.44891 2.98736 -11.6865 -24.6058 0.0 0.0 0.0 29.2172 -16.4158 -5.30962 -36.2368 -0.244872 5.46426 20.7722 15.1756 -2.8545 21.7957 -0.0 -0.0 -0.0 0.0 -0.0 -27.8242 -4.06813 -5.85173 -28.0169 -0.114901 -4.25535 37.6547 3.7011 4.70584 32.9994 -0.0 -0.0 0.0 0.0 0.0 
2941.67480626 702.538 -1676.60546158 50.6047810305 82.13334037 -43.183941089 -2.24776 -0.342036 -1.17449 -2.24704 -0.266612 -1.19387 -2.24048 0.0380786 -1.22268 -2.24253 -0.155484 -1.21335 -13.2705 6.03888 0.811051 -13.3501 10.9924 2.60706 -0.0 0.0 -0.0 10.7039 24.6542 17.6495 -14.2455 -12.7439 54.1302 1.04179 -27.2963 0.252968 -7.95076 -0.347029 0.954549 4.51261 30.7328 39.2876 -0.0 0.0 -0.0 7.33229 -7.24568 -14.0959 2.1746 16.1382 -64.2891 2.19412 47.3783 -0.962748 9.58603 -0.237836 1.2 2.84342 -12.2193 -23.7625 0.0 0.0 0.0 26.76 -15.6301 -5.01944 -38.0491 -0.34734 5.72322 23.2409 14.9203 -3.15556 20.2563 -0.0 -0.0 -0.0 0.0 -0.0 -25.3528 -4.33874 -6.57246 -33.4878 0.105249 -5.06574 38.7503 1.08036 4.77569 33.79 -0.0 -0.0 0.0 0.0 0.0 
2941.72473389 702.538 -1678.06575869 48.6725218405 81.9030495459 -41.2327870394 -2.24776 -0.342036 -1.17449 -2.24704 -0.266612 -1.19387 -2.24048 0.0380786 -1.22268 -2.24253 -0.155484 -1.21335 -13.2705 6.03888 0.811051 -13.3501 10.9924 2.60706 -0.0 0.0 -0.0 10.7039 24.6542 17.6495 -14.2455 -12.7439 54.1302 1.04179 -27.2963 0.252968 -7.95076 -0.347029 0.954549 4.51261 30.7328 39.2876 -0.0 0.0 -0.0 7.33229 -7.24568 -14.0959 2.1746 16.1382 -64.2891 2.19412 47.3783 -0.962748 9.58603 -0.237836 1.2 2.84342 -12.2193 -23.7625 0.0 0.0 0.0 26.76 -15.6301 -5.01944 -38.0491 -0.34734 5.72322 23.2409 14.9203 -3.15556 20.2563 -0.0 -0.0 -0.0 0.0 -0.0 -25.3528 -4.33874 -6.57246 -33.4878 0.105249 -5.06574 38.7503 1.08036 4.77569 33.79 -0.0 -0.0 0.0 0.0 0.0 
2917.00873021 706.757 -1673.84210195 49.6082356034 81.3976159692 -42.2853854166 -2.21787 -0.481631 -1.52903 -2.21665 -0.383371 -1.55657 -2.20451 0.0139705 -1.60301 -2.20802 -0.239338 -1.58511 -13.0241 7.38427 0.0186755 -13.1528 14.0367 2.24111 -0.0 0.0 -0.0 9.72272 24.3658 16.2602 -12.9182 -15.2344 57.5004 1.20805 -30.8964 0.333857 -5.42496 -0.222439 0.656573 5.09138 31.7665 43.6759 -0.0 0.0 -0.0 6.7248 -9.24846 -12.9152 2.02679 17.4451 -64.124 2.02335 45.0609 -0.839431 7.46525 -0.202582 0.931409 2.44099 -16.0601 -22.1785 0.0 0.0 0.0 24.6272 -13.8308 -3.82088 -37.0376 -0.289137 5.57908 23.4188 17.8514 -3.20445 18.6626 -0.0 -0.0 -0.0 0.0 -0.0 -24.2076 -3.98891 -5.46824 -38.2301 0.358024 -5.74891 38.5653 -1.12257 4.743 36.4829 -0.0 -0.0 0.0 0.0 0.0 
2902.43569634 712.33 -1674.99677571 49.2543060494 81.2244086231 -42.0557901814 -2.32359 -0.438327 -1.61935 -2.32219 -0.334409 -1.64395 -2.31069 0.0861759 -1.6754 -2.31457 -0.179466 -1.66799 -13.561 8.54889 2.15684 -13.7078 14.9625 4.70334 -0.0 0.0 -0.0 9.31057 23.6033 15.7872 -8.96969 -15.3043 59.9944 1.28616 -32.5007 0.374903 -3.42138 -0.133043 0.41653 5.24249 31.7869 44.8839 -0.0 0.0 -0.0 6.81343 -9.38529 -13.07 0.423117 16.8426 -63.3664 1.88887 43.0927 -0.745867 6.68184 -0.187048 0.832543 2.44548 -16.9093 -22.4589 0.0 0.0 0.0 24.0365 -12.6714 -3.70511 -37.7915 -0.332274 5.68661 21.2865 17.5487 -2.93832 18.6546 -0.0 -0.0 -0.0 0.0 -0.0 -22.2262 -4.62193 -5.4782 -41.5848 0.570658 -6.21869 39.226 -3.80256 4.79133 38.4391 -0.0 -0.0 0.0 0.0 0.0 
2860.42758186 719.086 -1671.30412398 43.6966397563 80.9666233682 -37.414025949 -2.24474 -0.356306 -1.79822 -2.24297 -0.241178 -1.81724 -2.23318 0.217276 -1.82025 -2.2378 -0.0728761 -1.83172 -12.9994 9.2583 3.01246 -13.1357 15.7327 5.65777 -0.0 0.0 -0.0 9.02055 22.851 15.4771 -5.87303 -16.8974 62.6549 1.40086 -34.7566 0.438442 -3.80294 -0.149419 0.462479 5.05896 31.7161 43.4224 -0.0 0.0 -0.0 6.83557 -10.0249 -13.0861 -0.647078 15.5446 -63.1564 1.48538 36.3437 -0.487583 3.52406 -0.110766 0.436425 1.90476 -20.2776 -19.8989 0.0 0.0 0.0 21.8479 -11.3367 -2.0464 -36.4694 -0.257563 5.49768 26.6784 18.0644 -3.59557 16.4004 -0.0 -0.0 -0.0 0.0 -0.0 -17.8492 -3.47355 -4.51514 -45.5668 0.858354 -6.75932 39.4805 -5.92439 4.81315 40.1273 -0.0 -0.0 0.0 0.0 0.0 
2837.98868811 723.455 -1659.75629075 48.6665212233 82.0561500122 -41.9564872211 -2.17605 -0.371214 -2.04355 -2.17376 -0.240453 -2.06302 -2.16243 0.276452 -2.05851 -2.16834 -0.0520483 -2.07633 -13.1947 9.38319 3.52989 -13.325 15.6688 6.21315 -0.0 0.0 -0.0 9.74371 23.0954 16.5215 -4.28916 -15.8352 63.0703 1.40827 -34.8982 0.44267 -0.859789 -0.0310865 0.105398 5.18989 31.2793 44.4823 -0.0 0.0 -0.0 6.59121 -10.7924 -12.6244 -1.91266 15.2161 -62.2853 1.35289 33.8275 -0.411411 2.52879 -0.0822094 0.312502 1.86154 -21.5271 -19.9818 0.0 0.0 0.0 21.3919 -11.5935 -1.51166 -38.6883 -0.385433 5.81378 28.471 20.9142 -3.84615 17.5221 -0.0 -0.0 -0.0 0.0 -0.0 -14.9936 -2.55999 -5.48233 -46.884 0.961748 -6.93368 38.4092 -8.92181 4.7275 39.4334 -0.0 -0.0 0.0 0.0 0.0 
2824.07125929 728.967 -1648.44751321 55.0043406235 83.4902521604 -48.6785118014 -2.06869 -0.51963 -2.1584 -2.06617 -0.381266 -2.18708 -2.04853 0.166148 -2.21382 -2.05532 -0.185481 -2.21229 -13.0326 10.0806 3.75236 -13.1798 16.8416 6.61756 -0.0 0.0 -0.0 10.0254 21.346 17.2656 -2.7411 -16.1194 63.8299 1.40622 -34.859 0.441497 -0.410064 -0.0146288 0.0503255 5.24593 31.8403 44.9089 -0.0 0.0 -0.0 6.119 -10.8824 -11.7924 -3.01661 15.3939 -63.1067 1.2512 31.7896 -0.356305 1.77986 -0.0593026 0.219583 1.97872 -22.7028 -21.0445 0.0 0.0 0.0 20.4829 -11.165 -1.03699 -37.2729 -0.30245 5.61271 30.8378 22.0124 -4.13553 17.2858 -0.0 -0.0 -0.0 0.0 -0.0 -12.3044 -2.73934 -4.69737 -47.3196 0.996826 -6.99082 35.4146 -11.5923 4.46334 39.5662 -0.0 -0.0 0.0 0.0 0.0 
2781.41526309 741.011 -1629.59499866 87.6899296861 83.8968243659 -81.3148291717 -2.11579 -0.682191 -2.5398 -2.11235 -0.519249 -2.57803 -2.08454 0.12972 -2.62657 -2.09405 -0.286581 -2.61412 -14.3709 9.84241 5.98059 -14.4515 15.197 8.82758 -0.0 0.0 -0.0 10.703 18.5614 18.8626 -0.736055 -16.8991 64.9432 1.36439 -34.0522 0.417833 1.34447 0.045427 -0.165702 4.99761 30.3614 42.9671 -0.0 0.0 -0.0 5.92175 -12.0095 -11.4218 -6.13882 13.3771 -62.3427 1.08425 28.2397 -0.272751 -0.0738351 0.00260732 -0.00906911 2.00183 -25.2423 -21.8468 0.0 0.0 0.0 13.9024 -11.5975 -0.946844 -31.6737 -0.0236707 4.79934 33.8796 24.3791 -4.52497 16.9325 -0.0 -0.0 -0.0 0.0 -0.0 -5.87562 1.45309 -2.88566 -51.278 1.33528 -7.49757 34.8817 -13.6142 4.43003 39.4663 -0.0 -0.0 0.0 0.0 0.0 
